<svg xmlns="http://www.w3.org/2000/svg" width="880" height="240" viewBox="0 0 880 240" role="img" aria-label="qtjg/numpy 3D banner">
<defs>
<linearGradient id="bgb49c765a" x1="0" y1="0" x2="0" y2="1">
<stop offset="0" stop-color="#180c15"/>
<stop offset="1" stop-color="#31172b"/>
</linearGradient>
<linearGradient id="lgb49c765a" x1="0" y1="0" x2="0" y2="1">
<stop offset="0" stop-color="#f782de"/>
<stop offset="1" stop-color="#f6315c"/>
</linearGradient>
<clipPath id="clip"><rect width="880" height="240"/></clipPath>
</defs>
<rect width="880" height="240" fill="url(#bgb49c765a)"/>
<ellipse cx="100" cy="232" rx="96" ry="15" fill="#dd3cba" opacity="0.18">
<animate attributeName="opacity" values="0.12;0.26;0.12" dur="5s" repeatCount="indefinite"/>
</ellipse>
<ellipse cx="792" cy="236" rx="100" ry="15" fill="#dd3c69" opacity="0.18">
<animate attributeName="opacity" values="0.12;0.26;0.12" dur="5s" begin="1.2s" repeatCount="indefinite"/>
</ellipse>
<g><animateTransform attributeName="transform" type="translate" values="0 0; 0 -6; 0 0" dur="5.2s" begin="0.0s" repeatCount="indefinite" calcMode="spline" keySplines="0.45 0 0.55 1; 0.45 0 0.55 1" keyTimes="0;0.5;1"/><polygon points="86.0,126.0 122.0,108.0 86.0,90.0 50.0,108.0" fill="#d256b7" stroke="#f7b6e9" stroke-width="0.8"/><polygon points="50.0,178.0 86.0,196.0 86.0,126.0 50.0,108.0" fill="#a42b8a"/><polygon points="86.0,196.0 122.0,178.0 122.0,108.0 86.0,126.0" fill="#751f62"/></g><g><animateTransform attributeName="transform" type="translate" values="0 0; 0 -5; 0 0" dur="6.1s" begin="0.7s" repeatCount="indefinite" calcMode="spline" keySplines="0.45 0 0.55 1; 0.45 0 0.55 1" keyTimes="0;0.5;1"/><polygon points="64.0,184.0 90.0,171.0 64.0,158.0 38.0,171.0" fill="#d25692" stroke="#f7b6d5" stroke-width="0.8"/><polygon points="38.0,213.0 64.0,226.0 64.0,184.0 38.0,171.0" fill="#a42b66"/><polygon points="64.0,226.0 90.0,213.0 90.0,171.0 64.0,184.0" fill="#751f49"/></g><g><animateTransform attributeName="transform" type="translate" values="0 0; 0 -7; 0 0" dur="5.7s" begin="1.4s" repeatCount="indefinite" calcMode="spline" keySplines="0.45 0 0.55 1; 0.45 0 0.55 1" keyTimes="0;0.5;1"/><polygon points="112.0,124.0 134.0,113.0 112.0,102.0 90.0,113.0" fill="#c266d6" stroke="#f0c8f9" stroke-width="0.8"/><polygon points="90.0,141.0 112.0,152.0 112.0,124.0 90.0,113.0" fill="#972eaf"/><polygon points="112.0,152.0 134.0,141.0 134.0,113.0 112.0,124.0" fill="#6c217d"/></g><g><animateTransform attributeName="transform" type="translate" values="0 0; 0 -6; 0 0" dur="5.5s" begin="0.4s" repeatCount="indefinite" calcMode="spline" keySplines="0.45 0 0.55 1; 0.45 0 0.55 1" keyTimes="0;0.5;1"/><polygon points="794.0,124.0 832.0,105.0 794.0,86.0 756.0,105.0" fill="#d25679" stroke="#f7b6c8" stroke-width="0.8"/><polygon points="756.0,181.0 794.0,200.0 794.0,124.0 756.0,105.0" fill="#a42b4e"/><polygon points="794.0,200.0 832.0,181.0 832.0,105.0 794.0,124.0" fill="#751f37"/></g><g><animateTransform attributeName="transform" type="translate" values="0 0; 0 -5; 0 0" dur="6.4s" begin="1.1s" repeatCount="indefinite" calcMode="spline" keySplines="0.45 0 0.55 1; 0.45 0 0.55 1" keyTimes="0;0.5;1"/><polygon points="816.0,184.0 842.0,171.0 816.0,158.0 790.0,171.0" fill="#9e56d2" stroke="#dcb6f7" stroke-width="0.8"/><polygon points="790.0,215.0 816.0,228.0 816.0,184.0 790.0,171.0" fill="#722ba4"/><polygon points="816.0,228.0 842.0,215.0 842.0,171.0 816.0,184.0" fill="#511f75"/></g><g><animateTransform attributeName="transform" type="translate" values="0 0; 0 -7; 0 0" dur="5.9s" begin="1.8s" repeatCount="indefinite" calcMode="spline" keySplines="0.45 0 0.55 1; 0.45 0 0.55 1" keyTimes="0;0.5;1"/><polygon points="768.0,124.0 790.0,113.0 768.0,102.0 746.0,113.0" fill="#d666af" stroke="#f9c8e8" stroke-width="0.8"/><polygon points="746.0,143.0 768.0,154.0 768.0,124.0 746.0,113.0" fill="#af2e82"/><polygon points="768.0,154.0 790.0,143.0 790.0,113.0 768.0,124.0" fill="#7d215d"/></g><g><animateTransform attributeName="transform" type="translate" values="0 0; 0 -8; 0 0" dur="6.8s" begin="0.3s" repeatCount="indefinite" calcMode="spline" keySplines="0.45 0 0.55 1; 0.45 0 0.55 1" keyTimes="0;0.5;1"/><g opacity="0.85"><polygon points="252.0,40.0 266.0,33.0 252.0,26.0 238.0,33.0" fill="#d45e64" stroke="#f8bfc2" stroke-width="0.8"/><polygon points="238.0,51.0 252.0,58.0 252.0,40.0 238.0,33.0" fill="#a92d33"/><polygon points="252.0,58.0 266.0,51.0 266.0,33.0 252.0,40.0" fill="#792025"/></g></g><g><animateTransform attributeName="transform" type="translate" values="0 0; 0 -8; 0 0" dur="7.3s" begin="1.5s" repeatCount="indefinite" calcMode="spline" keySplines="0.45 0 0.55 1; 0.45 0 0.55 1" keyTimes="0;0.5;1"/><g opacity="0.85"><polygon points="632.0,36.0 645.0,29.5 632.0,23.0 619.0,29.5" fill="#935ed4" stroke="#d8bff8" stroke-width="0.8"/><polygon points="619.0,45.5 632.0,52.0 632.0,36.0 619.0,29.5" fill="#652da9"/><polygon points="632.0,52.0 645.0,45.5 645.0,29.5 632.0,36.0" fill="#482079"/></g></g>
<line x1="0" y1="206.5" x2="880" y2="206.5" stroke="#c270b0" stroke-opacity="0.14"/>
<text x="446.0" y="132" font-family="'Segoe UI',-apple-system,'Helvetica Neue',Arial,sans-serif" font-size="58" font-weight="800" text-anchor="middle" fill="#371530">numpy</text><text x="445.0" y="131" font-family="'Segoe UI',-apple-system,'Helvetica Neue',Arial,sans-serif" font-size="58" font-weight="800" text-anchor="middle" fill="#34142d">numpy</text><text x="444.0" y="130" font-family="'Segoe UI',-apple-system,'Helvetica Neue',Arial,sans-serif" font-size="58" font-weight="800" text-anchor="middle" fill="#30122a">numpy</text><text x="443.0" y="129" font-family="'Segoe UI',-apple-system,'Helvetica Neue',Arial,sans-serif" font-size="58" font-weight="800" text-anchor="middle" fill="#2c1126">numpy</text><text x="442.0" y="128" font-family="'Segoe UI',-apple-system,'Helvetica Neue',Arial,sans-serif" font-size="58" font-weight="800" text-anchor="middle" fill="#290f23">numpy</text><text x="441.0" y="127" font-family="'Segoe UI',-apple-system,'Helvetica Neue',Arial,sans-serif" font-size="58" font-weight="800" text-anchor="middle" fill="#250e20">numpy</text><text x="440.0" y="126" font-family="'Segoe UI',-apple-system,'Helvetica Neue',Arial,sans-serif" font-size="58" font-weight="800" text-anchor="middle" fill="url(#lgb49c765a)" letter-spacing="1">numpy</text>
<text x="440.0" y="164" font-family="'Segoe UI',-apple-system,'Helvetica Neue',Arial,sans-serif" font-size="15" text-anchor="middle" fill="#d1bdcd" opacity="0.92" letter-spacing="0.5">The fundamental package for scientific computing with Python.</text>
<text x="440.0" y="206" font-family="'Segoe UI',-apple-system,'Helvetica Neue',Arial,sans-serif" font-size="12" font-weight="600" text-anchor="middle" fill="#bf88b3" opacity="0.85" letter-spacing="3">qtjg/numpy</text>
<g clip-path="url(#clip)"><polygon points="0,0 150,0 60,240 -90,240" fill="#ffffff" opacity="0.055"><animateTransform attributeName="transform" type="translate" from="-260 0" to="1140 0" dur="7.0s" repeatCount="indefinite"/></polygon></g>
<rect x="0" y="0" width="880" height="3" fill="url(#lgb49c765a)" opacity="0.9"/>
<rect x="0" y="236" width="880" height="4" fill="#a13689" opacity="0.55"/>
</svg>